<svg width="12" height="12" viewBox="0 0 12 12" fill="none" xmlns="http://www.w3.org/2000/svg">
<path d="M0.906494 6.75H9.28399L5.62399 10.41C5.33149 10.7025 5.33149 11.1825 5.62399 11.475C5.91649 11.7675 6.38899 11.7675 6.68149 11.475L11.624 6.5325C11.9165 6.24 11.9165 5.7675 11.624 5.475L6.68899 0.524998C6.54887 0.384558 6.35863 0.305634 6.16024 0.305634C5.96186 0.305634 5.77162 0.384558 5.63149 0.524998C5.33899 0.817498 5.33899 1.29 5.63149 1.5825L9.28399 5.25H0.906494C0.493994 5.25 0.156494 5.5875 0.156494 6C0.156494 6.4125 0.493994 6.75 0.906494 6.75Z" fill="white"/>
</svg>
